<svg version="1.1" id="Layer_1" xmlns="http://www.w3.org/2000/svg" xmlns:xlink="http://www.w3.org/1999/xlink" x="0px" y="0px"
	 viewBox="0 0 782.7 173" enable-background="new 0 0 782.7 173" xml:space="preserve">
<path fill="#242A5F" d="M0,166.1c35.6,0.1,35.7-14.2,71.3-14.1c35.6,0.1,35.5,14.5,71.1,14.7c35.6,0.1,35.7-14.2,71.3-14.1
	c35.6,0.1,35.5,14.5,71.1,14.7c35.6,0.1,35.7-14.2,71.3-14.1c35.6,0.1,35.5,14.5,71.1,14.7c35.6,0.1,35.7-14.2,71.3-14.1
	c35.6,0.1,35.5,14.5,71.1,14.7c35.6,0.1,35.7-14.2,71.3-14.1c35.6,0.1,35.5,14.5,71.2,14.7s35.7-14.2,71.3-14.1l0.1,18.2H0.2
	L0,166.1z"/>
<path fill="#242A5F" d="M761.5,122.4c-5.6,9.9-27.1,21.6-32.6,23.9c-5.5,2.4-16.3,4.2-26.1,6.1c-9.8,1.9-35.1,19.3-38,15.9
	c-3-3.4-1-11.8-1-11.8c8.8-30.2,16.1-20.8,38.6-37.4c22.5-16.6,4.9-32.3-10-39.9c-14.9-7.6-34.2,8-40.3,19.4s-4.7,45.8-6.6,54
	c-1.9,8.1-12.6,14.4-12.6,14.4s-2.4-6.2-6.9-19.6c-4.5-13.3-6.2-37.5-4.4-47.8c1.8-10.2,10.6-23.9,10.6-23.9s-10.5,2.2-16.6,4.8
	s-25.6,18.6-25.6,18.6s-13.1,13.1-29.7,9.4c-16.7-3.7-15.5-7-15.5-7c27.1-28.5,89.6-54.8,80.7-55.4c-8.8-0.7-34.3,12.2-37.9,15.5
	c-3.7,3.3-13.3,5.7-13.3,5.7s-34.8,0.7-31-6.1s57.4-35.3,57.4-35.3s27.9-8,36.5-7.4c8.6,0.6-21.6,0.6-42.9,8.7s-31-9.3-31-9.3
	s40.6-16.5,52.9-17.8c12.2-1.3,90.6,21.5,95,23.4c25,10.8,51.7,6,71.6-1.9v72.2C775.5,101.1,768.3,110.5,761.5,122.4z"/>
<path fill="#EBE1BF" d="M561.9,60.2c0,0,13.7-5.8,12.5-9.9c-1.1-3.6-4.4-6.2-6-6.9c-8.2,3.6-20.9,13.3-20.9,13.3
	S557.6,60.6,561.9,60.2z"/>
<path fill="#EBE1BF" d="M548.1,97.9c1.2,0.7,7.3,4.6,11.7,4c4.3-0.6,14.4-10.2,14.4-10.2s1.3-5.2-6.8-9.2
	C565.6,81.6,547,97.2,548.1,97.9z"/>
<path fill="#EBE1BF" d="M628.5,154.9c-2.5-6.8-5.6-15.9-5-17.7c0,0,7.3-2.6,10-0.9c2.7,1.7,7.5,10.6,4.1,17.7"/>
<path fill="#EBE1BF" d="M669.9,167.8c0,0-4-14.3,3.7-20.2c7.6-5.8,19.8-6.9,19.8-6.9s5.9,10.8,4.4,13.3
	C696.3,156.5,673.9,163.8,669.9,167.8z"/>
<path fill="#EBE1BF" d="M569.2,15.1c0,0,5.5,6.6,8.9,6.3s16.1-4.3,16.1-4.3s-1.2-7.8-5.8-8.9C586.6,7.8,569.2,15.1,569.2,15.1z"/>
</svg>