<svg version="1.1" id="Layer_1" xmlns="http://www.w3.org/2000/svg" xmlns:xlink="http://www.w3.org/1999/xlink" x="0px" y="0px"
	 viewBox="0 0 266.2 408.5" enable-background="new 0 0 266.2 408.5" xml:space="preserve">
<path fill="#242A5F" d="M17.1,304.7c9.1-27.5-10.2-120.1-10.2-120.1c-10-9.8-7.6-72.7-2.2-87.7S4.7,0,4.7,0S16-1.1,40,17.9
	s19.3,63.6,25.8,87.6c0,0,8.7,34.3,8.7,56.1S89,193.4,89,193.4s46.5,72.7,70.2,126.2c0,0,69.9-18.3,69.4-8.3
	c-0.7,12-95.6,103-114.3,96.8l-59.2-24C36.5,372.9,17.1,304.7,17.1,304.7z"/>
<path fill="#EBE1BF" d="M6.2,11.7c0,0,22.7,4.7,26.7,17.2s-0.6,33.5-0.6,33.5s-0.4,8.7-25.3,1.5L5.3,13C5.3,13,5.2,11.4,6.2,11.7z"
	/>
<path fill="#242A5F" d="M133.5,304.7h5.1c0,0-3.1,3.4-3.7,6.6"/>
<path fill="#242A5F" d="M123,269.1c0,0,15.2-1.5,16.8-2.3c1.6-0.8-12.1,13-12,17"/>
<path fill="#242A5F" d="M104.6,224.4c0,0,18.6,2.4,27.6-1.6c0,0-14.3,9-19.4,20.2"/>
<path fill="#242A5F" d="M224.5,268.4c-26.7,27.4-62.6,15.8-79.2,32c-16.6,16.2-5.9,17.9-5.9,17.9c39.7,5.1,94.5-8.9,101.2-12.9
	c6.7-4,9.7-9.6,11.6-13.3c2.5-5,6.3-17.5,6.3-17.5s-2.3-10.8-18.7-15.8"/>
<path fill="#EBE1BF" d="M181.5,318.2c0,0-28.2,2.4-38,0.6c0.4-1.4,2.2-11.5,11.9-13.1c9.6-1.6,17.9-0.8,17.9-0.8
	S179.6,304.3,181.5,318.2z"/>
<path fill="#242A5F" d="M200.4,133.7c-27.2,44.9-71.9,35.5-88.9,62.2s-4,27-4,27c48.2-0.8,111.1-32.1,118.4-39.2
	c7.3-7.1,16.5-18,18.1-23.6c2.2-7.7,2.9-19.1,2.9-19.1s-0.8-28.6-7.6-32.5s-118.2-18.8-170,8.3c0,0,7.9,17.5,8.4,48.2
	c0.3,21.4,16.6,28.6,16.6,28.6l7.4,29.5c0,0-1.6-38.7,30-49.1s45.4-21.1,45.4-21.1"/>
<path fill="#EBE1BF" d="M157.5,214.1c0,0-33.2,9.2-45.2,8.6c0.2-2.1,0.7-17,11.9-21.2s21.2-4.8,21.2-4.8S152.9,194.4,157.5,214.1z"
	/>
<path fill="#242A5F" d="M224.5,213.8c-27.2,44.9-71.9,35.5-88.9,62.2s-4,27-4,27c48.2-0.8,111.1-32.1,118.4-39.2
	c7.3-7.1,10-15.9,11.6-21.5c2.2-7.7,4.6-26.5,4.6-26.5s-1.4-9.7-15.2-15.1"/>
<path fill="#EBE1BF" d="M181.7,294.2c0,0-33.2,9.2-45.2,8.6c0.2-2.1,0.7-17,11.9-21.2c11.2-4.2,21.2-4.8,21.2-4.8
	S177,274.6,181.7,294.2z"/>
<path fill="#242A5F" d="M211.6,173.8c-28.4,46.8-75,37-92.8,64.9s-4.2,28.2-4.2,28.2c50.3-0.8,115.9-33.5,123.5-40.9
	c7.6-7.4,10.4-16.5,12.1-22.4c2.3-8.1,4.8-27.6,4.8-27.6s0-10.4-14.5-15.8"/>
<path fill="#EBE1BF" d="M166.9,257.6c0,0-34.7,9.6-47.1,9c0.2-2.2,0.7-17.7,12.4-22.2s22.1-5,22.1-5S162.1,237.1,166.9,257.6z"/>
</svg>
