<svg version="1.1" id="Layer_1" xmlns="http://www.w3.org/2000/svg" xmlns:xlink="http://www.w3.org/1999/xlink" x="0px" y="0px"
	 viewBox="0 0 866.9 267.4" enable-background="new 0 0 866.9 267.4" xml:space="preserve">
<path fill="#242A5F" d="M92.1,103c44.8,66.1,122.4,14.4,122.4,14.4c41.4,43.1,84,0.8,84,0.8c48.8,38.8,71.2-15.2,71.2-15.2
	c40.5-6.3,46.5-23.3,46.5-32.6c0-30.6-51.7-27.2-51.7-27.2C349-4.4,298.5,17,298.5,17c-44.8-36-89.8,6.4-89.8,6.4
	c-40-48.6-98.2-6.4-98.2-6.4S47.2-15.4,36.9,36.3c0,0-39.5,6.5-36.7,39.9C2.9,108.5,92.1,103,92.1,103z"/>
<path fill="#242A5F" d="M541.5,233.7c44.8,66.1,122.4,14.4,122.4,14.4c41.4,43.1,84,0.8,84,0.8c48.8,38.8,71.2-15.2,71.2-15.2
	c110.4-46.3-5.2-59.8-5.2-59.8c-15.5-47.6-66-26.2-66-26.2c-51.1-48.3-119,0-119,0c-34.5-32.2-69,0-69,0s-63.3-32.4-73.6,19.3
	c0,0-39.5,6.5-36.7,39.9C452.3,239.2,541.5,233.7,541.5,233.7z"/>
</svg>
