<svg version="1.1" id="Layer_1" xmlns="http://www.w3.org/2000/svg" xmlns:xlink="http://www.w3.org/1999/xlink" x="0px" y="0px"
	 viewBox="0 0 756.5 481" enable-background="new 0 0 756.5 481" xml:space="preserve">
<path fill="#242A5F" d="M157.4-0.7c0,0-148,50.1-156.7,61.3s69.1,27.6,69.1,27.6s10.6,2.2,60-14.3s71-19,71-19l-61.1,23.7
	c0,0-104.7,84.8-138.4,152.8c0,0,63,20.6,89.1-11.3s41.9-62.8,68-72.4c13.6-5,115.9-32.5,135.5-45.3c5-3.3-79.5,34.6-112,85
	c-7.7,11.9-24.7,108.3-7.4,172.9c0,0,5.4,17.3,34.5-15.6s-0.3-88.9,49.2-142.3c28.2-30.3,75.9-61,138-53.4
	C497.5,161.6,536.7,250,536.7,296.7c0,34.5-22.4,92.6,2.9,126.7s40.8,36.7,40.8,36.7s22.5-111.6,35.1-129.8
	c12.6-18.2,22.8-123.5,13-140.3c0,0-15.6-174.7,128-190.7l0,0"/>
<path fill="#EBE1BF" d="M71.5,29.8c0,0,7.9,10.4,9,12.9c0.6,1.5,4.2,10.4-8.8,16s-21.8,11.2-34.8,5.7c-13-5.5-21.3-12.2-21.3-12.2
	S40.3,39,71.5,29.8z"/>
<path fill="#EBE1BF" d="M45,169.8c0,0,15,11.7,18,15.3c1.9,2.3,5.7,10.1-0.2,18.4c-8.2,11.6-15.5,19-29.6,19.3s-25.5-3-25.5-3
	S27,185.5,45,169.8z"/>
<path fill="#EBE1BF" d="M167,290.2c0,0-1.8,39.3,5.8,63.7c2.7-1.1,22.4-7.4,23.8-24c1.4-16.6-1.7-30.1-1.7-30.1S195,288.9,167,290.2
	z"/>
<path fill="#EBE1BF" d="M582.6,443.9c0,0-28.8-14.5-29.5-32.7c-0.7-18.2,12.9-44.7,12.9-44.7s3.7-11.6,34.4,7.1l-16.1,68.8
	C584.3,442.5,583.9,444.6,582.6,443.9z"/>
</svg>