<svg version="1.1" id="Layer_1" xmlns="http://www.w3.org/2000/svg" xmlns:xlink="http://www.w3.org/1999/xlink" x="0px" y="0px"
	 viewBox="0 0 756.5 481" enable-background="new 0 0 756.5 481" xml:space="preserve">
<g>
	<circle fill="#EBE1BF" cx="378.3" cy="307.1" r="159"/>
</g>
<circle fill="#242A5F" cx="378.3" cy="307.1" r="131.4"/>
<circle fill="#EE3232" cx="378.3" cy="307.1" r="97.5"/>
<circle fill="#EBE1BF" cx="378.3" cy="307.1" r="46.5"/>
<path fill="#242A5F" d="M475.8,312.5c-10.8,0-10.8-5.4-21.7-5.4c-10.8,0-10.8,5.4-21.7,5.4c-10.8,0-10.8-5.4-21.7-5.4
	c-10.8,0-10.8,5.4-21.7,5.4c-10.8,0-10.8-5.4-21.7-5.4c-10.8,0-10.8,5.4-21.7,5.4c-10.8,0-10.8-5.4-21.7-5.4
	c-10.8,0-10.8,5.4-21.7,5.4c-10.8,0-10.8-5.4-21.7-5.4v0.7c0,53.9,43.7,97.5,97.5,97.5c51.2,0,93.2-39.5,97.2-89.6L475.8,312.5z"/>
</svg>